<svg xmlns="http://www.w3.org/2000/svg" viewBox="0 0 64 64" width="64" height="64">
  <defs>
    <linearGradient id="vcGrad" x1="0" y1="0" x2="1" y2="1">
      <stop offset="0%" stop-color="#8b5cf6"/>
      <stop offset="55%" stop-color="#6366f1"/>
      <stop offset="100%" stop-color="#ec4899"/>
    </linearGradient>
  </defs>
  <rect width="64" height="64" rx="18" fill="url(#vcGrad)"/>
  <path d="M32 47.5 C21 39.5 14 33 14 24.7 C14 18.7 18.6 14 24.5 14 C28 14 30.6 15.7 32 18.2 C33.4 15.7 36 14 39.5 14 C45.4 14 50 18.7 50 24.7 C50 33 43 39.5 32 47.5 Z" fill="white" fill-opacity="0.95"/>
  <path d="M23.5 27.5 L29.5 33.5 L41 20.5" stroke="#7c3aed" stroke-width="4.2" stroke-linecap="round" stroke-linejoin="round" fill="none"/>
  <path d="M47 12 L48.4 15.6 L52 17 L48.4 18.4 L47 22 L45.6 18.4 L42 17 L45.6 15.6 Z" fill="#fde047"/>
</svg>
